<svg xmlns="http://www.w3.org/2000/svg" xmlns:xlink="http://www.w3.org/1999/xlink" width="100" zoomAndPan="magnify" viewBox="0 0 75 74.999997" height="100" preserveAspectRatio="xMidYMid meet" version="1.0"><defs><g/></defs><g fill="#000000" fill-opacity="1"><g transform="translate(25.025002, 55.750097)"><g><path d="M 9.296875 -16.5 C 9.296875 -17.0625 9.488281 -17.535156 9.875 -17.921875 C 10.257812 -18.304688 10.734375 -18.5 11.296875 -18.5 C 12.765625 -18.5625 14.082031 -18.882812 15.25 -19.46875 C 16.414062 -20.050781 17.335938 -20.882812 18.015625 -21.96875 C 18.703125 -23.050781 19.046875 -24.34375 19.046875 -25.84375 C 19.046875 -27.25 18.738281 -28.484375 18.125 -29.546875 C 17.507812 -30.617188 16.675781 -31.453125 15.625 -32.046875 C 14.570312 -32.648438 13.394531 -32.953125 12.09375 -32.953125 C 10.863281 -32.953125 9.710938 -32.679688 8.640625 -32.140625 C 7.578125 -31.609375 6.664062 -30.910156 5.90625 -30.046875 C 5.53125 -29.679688 5.101562 -29.429688 4.625 -29.296875 C 4.144531 -29.160156 3.65625 -29.257812 3.15625 -29.59375 C 2.582031 -30 2.269531 -30.472656 2.21875 -31.015625 C 2.175781 -31.566406 2.367188 -32.078125 2.796875 -32.546875 C 3.898438 -33.878906 5.265625 -34.9375 6.890625 -35.71875 C 8.523438 -36.507812 10.257812 -36.90625 12.09375 -36.90625 C 14.132812 -36.90625 15.988281 -36.4375 17.65625 -35.5 C 19.320312 -34.5625 20.65625 -33.269531 21.65625 -31.625 C 22.65625 -29.976562 23.15625 -28.050781 23.15625 -25.84375 C 23.15625 -24.382812 22.894531 -23.035156 22.375 -21.796875 C 21.851562 -20.566406 21.125 -19.472656 20.1875 -18.515625 C 19.257812 -17.566406 18.175781 -16.8125 16.9375 -16.25 C 15.707031 -15.6875 14.378906 -15.335938 12.953125 -15.203125 C 12.847656 -15.203125 12.84375 -15.207031 12.9375 -15.21875 C 13.039062 -15.238281 13.144531 -15.28125 13.25 -15.34375 L 13.25 -11.25 C 13.25 -10.6875 13.066406 -10.203125 12.703125 -9.796875 C 12.335938 -9.398438 11.867188 -9.203125 11.296875 -9.203125 C 10.703125 -9.203125 10.21875 -9.398438 9.84375 -9.796875 C 9.476562 -10.203125 9.296875 -10.6875 9.296875 -11.25 Z M 11.203125 0 C 10.503906 0 9.96875 -0.207031 9.59375 -0.625 C 9.226562 -1.039062 9.046875 -1.597656 9.046875 -2.296875 L 9.046875 -3.296875 C 9.046875 -3.992188 9.226562 -4.539062 9.59375 -4.9375 C 9.96875 -5.34375 10.503906 -5.546875 11.203125 -5.546875 L 11.65625 -5.546875 C 12.351562 -5.546875 12.882812 -5.34375 13.25 -4.9375 C 13.613281 -4.539062 13.796875 -3.992188 13.796875 -3.296875 L 13.796875 -2.296875 C 13.796875 -1.597656 13.613281 -1.039062 13.25 -0.625 C 12.882812 -0.207031 12.351562 0 11.65625 0 Z M 11.203125 0 "/></g></g></g></svg>