<svg xmlns="http://www.w3.org/2000/svg" xmlns:xlink="http://www.w3.org/1999/xlink" width="800" zoomAndPan="magnify" viewBox="0 0 600 599.999999" height="800" preserveAspectRatio="xMidYMid meet" version="1.0"><defs><g/><clipPath id="edbc5647ca"><rect x="0" width="277" y="0" height="600"/></clipPath></defs><g transform="matrix(1, 0, 0, 1, 164, -0.000000000000034788)"><g clip-path="url(#edbc5647ca)"><g fill="#000000" fill-opacity="1"><g transform="translate(0.249993, 503.999998)"><g><path d="M 101.171875 -179.5 C 101.171875 -185.664062 103.253906 -190.832031 107.421875 -195 C 111.597656 -199.175781 116.769531 -201.265625 122.9375 -201.265625 C 138.894531 -201.984375 153.21875 -205.515625 165.90625 -211.859375 C 178.59375 -218.210938 188.65625 -227.28125 196.09375 -239.0625 C 203.53125 -250.851562 207.25 -264.90625 207.25 -281.21875 C 207.25 -296.445312 203.894531 -309.863281 197.1875 -321.46875 C 190.476562 -333.082031 181.410156 -342.148438 169.984375 -348.671875 C 158.554688 -355.203125 145.773438 -358.46875 131.640625 -358.46875 C 118.222656 -358.46875 105.710938 -355.566406 94.109375 -349.765625 C 82.503906 -343.960938 72.53125 -336.347656 64.1875 -326.921875 C 60.195312 -322.929688 55.570312 -320.207031 50.3125 -318.75 C 45.050781 -317.300781 39.703125 -318.390625 34.265625 -322.015625 C 28.097656 -326.367188 24.742188 -331.535156 24.203125 -337.515625 C 23.660156 -343.503906 25.75 -349.035156 30.46875 -354.109375 C 42.425781 -368.617188 57.289062 -380.132812 75.0625 -388.65625 C 92.832031 -397.175781 111.691406 -401.4375 131.640625 -401.4375 C 153.753906 -401.4375 173.878906 -396.359375 192.015625 -386.203125 C 210.148438 -376.046875 224.65625 -361.992188 235.53125 -344.046875 C 246.40625 -326.097656 251.84375 -305.15625 251.84375 -281.21875 C 251.84375 -265.269531 249.03125 -250.582031 243.40625 -237.15625 C 237.789062 -223.738281 229.90625 -211.863281 219.75 -201.53125 C 209.601562 -191.195312 197.820312 -182.945312 184.40625 -176.78125 C 170.988281 -170.613281 156.484375 -166.804688 140.890625 -165.359375 C 139.796875 -165.359375 139.789062 -165.445312 140.875 -165.625 C 141.96875 -165.8125 143.054688 -166.269531 144.140625 -167 L 144.140625 -122.390625 C 144.140625 -116.222656 142.144531 -110.960938 138.15625 -106.609375 C 134.175781 -102.265625 129.101562 -100.09375 122.9375 -100.09375 C 116.40625 -100.09375 111.144531 -102.265625 107.15625 -106.609375 C 103.164062 -110.960938 101.171875 -116.222656 101.171875 -122.390625 Z M 121.84375 0 C 114.226562 0 108.425781 -2.265625 104.4375 -6.796875 C 100.445312 -11.328125 98.453125 -17.398438 98.453125 -25.015625 L 98.453125 -35.90625 C 98.453125 -43.519531 100.445312 -49.5 104.4375 -53.84375 C 108.425781 -58.195312 114.226562 -60.375 121.84375 -60.375 L 126.734375 -60.375 C 134.359375 -60.375 140.160156 -58.195312 144.140625 -53.84375 C 148.128906 -49.5 150.125 -43.519531 150.125 -35.90625 L 150.125 -25.015625 C 150.125 -17.398438 148.128906 -11.328125 144.140625 -6.796875 C 140.160156 -2.265625 134.359375 0 126.734375 0 Z M 121.84375 0 "/></g></g></g></g></g></svg>