<svg xmlns="http://www.w3.org/2000/svg" xmlns:xlink="http://www.w3.org/1999/xlink" width="200" zoomAndPan="magnify" viewBox="0 0 150 149.999998" height="200" preserveAspectRatio="xMidYMid meet" version="1.0"><defs><clipPath id="5f59d42015"><path d="M 7.34375 7.34375 L 142.65625 7.34375 L 142.65625 142.65625 L 7.34375 142.65625 Z M 7.34375 7.34375 " clip-rule="nonzero"/></clipPath><clipPath id="1409696588"><path d="M 75 7.34375 C 37.632812 7.34375 7.34375 37.632812 7.34375 75 C 7.34375 112.363281 37.632812 142.65625 75 142.65625 C 112.363281 142.65625 142.65625 112.363281 142.65625 75 C 142.65625 37.632812 112.363281 7.34375 75 7.34375 Z M 75 7.34375 " clip-rule="nonzero"/></clipPath><clipPath id="c4d20572c5"><path d="M 0.34375 0.34375 L 135.65625 0.34375 L 135.65625 135.65625 L 0.34375 135.65625 Z M 0.34375 0.34375 " clip-rule="nonzero"/></clipPath><clipPath id="4d98e6df44"><path d="M 68 0.34375 C 30.632812 0.34375 0.34375 30.632812 0.34375 68 C 0.34375 105.363281 30.632812 135.65625 68 135.65625 C 105.363281 135.65625 135.65625 105.363281 135.65625 68 C 135.65625 30.632812 105.363281 0.34375 68 0.34375 Z M 68 0.34375 " clip-rule="nonzero"/></clipPath><clipPath id="dca49be8fd"><rect x="0" width="136" y="0" height="136"/></clipPath></defs><g clip-path="url(#5f59d42015)"><g clip-path="url(#1409696588)"><g transform="matrix(1, 0, 0, 1, 7, 7)"><g clip-path="url(#dca49be8fd)"><g clip-path="url(#c4d20572c5)"><g clip-path="url(#4d98e6df44)"><path fill="#ff001a" d="M 0.34375 0.34375 L 135.65625 0.34375 L 135.65625 135.65625 L 0.34375 135.65625 Z M 0.34375 0.34375 " fill-opacity="1" fill-rule="nonzero"/></g></g></g></g></g></g><path fill="#000000" d="M 48.167969 145.019531 C 38.824219 141.445312 30.300781 136.085938 23.019531 129.078125 C 15.734375 122.066406 10.03125 113.824219 6.046875 104.613281 C 2.199219 95.683594 0.207031 86.269531 0 76.511719 C -0.207031 66.753906 1.441406 57.273438 4.949219 48.203125 C 8.519531 38.855469 13.878906 30.335938 20.890625 23.054688 C 27.898438 15.769531 36.144531 10.066406 45.351562 6.082031 C 54.28125 2.234375 63.695312 0.242188 73.453125 0.0351562 C 83.210938 -0.171875 92.695312 1.476562 101.761719 4.980469 C 111.109375 8.554688 119.628906 13.914062 126.914062 20.921875 C 134.195312 27.933594 139.898438 36.175781 143.882812 45.386719 C 147.734375 54.316406 149.726562 63.730469 149.929688 73.488281 C 150.136719 83.246094 148.488281 92.726562 144.984375 101.796875 C 141.410156 111.144531 136.050781 119.664062 129.042969 126.945312 C 122.035156 134.230469 113.789062 139.933594 104.582031 143.917969 C 95.648438 147.765625 86.234375 149.757812 76.476562 149.964844 C 75.925781 149.964844 75.445312 149.964844 74.898438 149.964844 C 65.6875 149.964844 56.6875 148.316406 48.167969 145.019531 Z M 73.589844 8.347656 C 55.792969 8.691406 39.167969 15.976562 26.867188 28.824219 C 14.566406 41.675781 7.96875 58.578125 8.3125 76.375 C 8.65625 94.171875 15.941406 110.800781 28.789062 123.097656 C 41.296875 135.125 57.648438 141.652344 74.964844 141.652344 C 75.445312 141.652344 75.859375 141.652344 76.339844 141.652344 C 94.136719 141.308594 110.765625 134.023438 123.066406 121.175781 C 135.363281 108.324219 141.960938 91.421875 141.617188 73.625 C 141.273438 55.828125 133.988281 39.199219 121.140625 26.902344 C 108.636719 14.875 92.28125 8.347656 74.964844 8.347656 C 57.648438 8.347656 74.074219 8.347656 73.589844 8.347656 Z M 73.589844 8.347656 " fill-opacity="1" fill-rule="nonzero"/></svg>