<?xml version="1.0" encoding="utf-8"?>
<!-- Generator: Adobe Illustrator 24.3.0, SVG Export Plug-In . SVG Version: 6.00 Build 0)  -->
<svg version="1.1" id="Layer_1" xmlns="http://www.w3.org/2000/svg" xmlns:xlink="http://www.w3.org/1999/xlink" x="0px" y="0px"
	 viewBox="0 0 494.36 130.97" style="enable-background:new 0 0 494.36 130.97;" xml:space="preserve">
<style type="text/css">
	.st0{fill:#00583D;}
	.st1{fill:#FFCD05;}
</style>
<g>
	<rect x="232.06" y="15.54" class="st0" width="19.42" height="98.78"/>
	<path class="st0" d="M204.5,34.78c-0.37,0-0.74,0-1.11,0c-4.25,0-7.95,0.55-10.91,1.48c-7.4,2.4-11.1,7.03-11.1,14.61V66.6h11.1
		h7.59c0-1.11,0-2.78-0.19-4.99c-0.19-2.22-0.37-3.88-0.37-4.99c0-6.47,1.29-9.43,3.88-9.43c2.22,0,3.33,1.11,3.33,3.7v11.84
		c0,0.93-1.11,2.03-3.33,3.52c-0.92,0.55-2.04,1.11-3.33,1.85c-2.96,1.48-5.55,2.78-7.59,4.07c-3.7,2.22-6.29,4.07-7.95,5.73
		c-2.59,2.78-3.89,5.73-3.89,9.25v15.91c0,7.03,3.89,11.1,11.84,12.02c1.11,0.19,2.59,0.37,4.07,0.37c2.59,0,4.99-0.18,6.84-0.74
		c2.78-0.55,4.63-1.85,5.55-3.51v3.14h17.21v-62.9C226.14,40.33,218.92,34.78,204.5,34.78z M206.71,99.52c0,2.41-1.11,3.7-3.14,3.7
		c-0.19,0-0.19,0-0.19,0c-2.22,0-3.33-1.29-3.33-3.7V85.28c0-2.04,1.11-3.7,3.33-4.81c0.93-0.55,2.04-0.92,3.33-1.29V99.52z"/>
	<path class="st0" d="M175.26,114.32h-19.42V50.87c0-2.4-1.11-3.51-3.33-3.51c-2.22,0-3.33,1.11-3.33,3.51v63.45h-19.24V35.33h19.24
		v2.77c2.59-2.22,6.66-3.33,12.02-3.33c3.52,0,6.66,0.93,9.62,2.96c2.96,1.85,4.44,4.62,4.44,8.32V114.32z"/>
	<path class="st0" d="M107.75,35.33l-2.59,2.96c-1.29-0.55-2.4-1.11-3.51-1.66c-2.77-1.11-5.18-1.85-7.22-1.85
		c-10.36,0-15.35,4.44-15.35,12.95v56.79c0,3.14,1.29,5.92,4.07,7.77c2.77,2.04,6.1,3.14,9.99,3.14c3.33,0,6.29-0.37,8.51-1.11
		c1.29-0.56,2.4-1.11,3.33-1.85c0,3.33-1.11,5.55-3.33,6.47c-0.93,0.56-2.04,0.74-3.52,0.74H82.4v11.29h19.24h0.92
		c10.55,0,16.83-1.67,18.68-4.99c2.04-3.33,3.15-7.59,3.15-12.77V35.33H107.75z M104.97,100.26c0,2.22-1.11,3.51-3.33,3.51
		c-2.22,0-3.33-1.29-3.33-3.7V50.69c0-2.4,1.11-3.51,3.33-3.51c2.22,0,3.33,1.11,3.33,3.51V100.26z"/>
	<rect x="54.28" y="35.33" class="st0" width="19.42" height="78.99"/>
	<path class="st0" d="M0.27,75.29h19.43v22.39c0,2.22,1.29,3.33,4.07,3.33c2.59,0,3.88-1.11,3.88-3.33V86.02
		c0-3.51-2.41-7.58-7.03-12.4c-9.25-8.88-14.8-14.8-17.02-17.75c-2.22-2.96-3.33-6.47-3.33-9.99V34.96
		c0-12.76,8.14-19.05,24.79-19.05c14.61,0,22.01,5.73,22.01,17.2v17.02H27.65V32.19c0-2.04-1.11-2.96-3.15-2.96
		c-2.59,0-3.88,1.85-3.88,5.55l0.56,6.47c0,3.51,2.4,7.77,7.21,12.58C37.27,62.34,43,68.45,45.41,71.78
		c2.41,3.33,3.52,7.22,3.52,11.47v12.58c0,12.95-8.14,19.42-24.79,19.42c-15.91,0-23.86-5.92-23.86-17.76V75.29z"/>
	<path class="st1" d="M473.1,115.06h-19.24V51.43c0-2.4-1.11-3.7-3.33-3.7c-2.22,0-3.33,1.29-3.33,3.51v63.82h-19.42V16.28h19.42
		v22.2c2.22-2.03,6.29-2.96,12.02-2.96c3.7,0,7.03,1.11,9.81,2.96c2.78,2.04,4.07,4.62,4.07,7.96V115.06z"/>
	<path class="st1" d="M422.41,71.04h-19.42V51.61c0-2.59-1.11-3.88-3.33-3.88c-2.22,0-3.33,1.29-3.33,3.88v48.47
		c0,2.59,1.11,3.88,3.33,3.88c2.21,0,3.33-1.29,3.33-3.88V80.84h19.42v19.24c0,10.73-7.58,16.09-22.38,16.09
		c-15.35,0-23.12-5.55-23.12-16.65V52.17c0-11.1,7.77-16.65,23.12-16.65c14.8,0,22.38,5.37,22.38,16.1V71.04z"/>
	<path class="st1" d="M349.15,81.58h22.75V51.61c0-10.73-7.58-16.1-22.75-16.1c-15.17,0-22.57,5.55-22.57,16.65v47.36
		c0,11.1,7.4,16.65,22.57,16.65c15.17,0,22.75-5.36,22.75-16.09V84.17h-19.24v15.91c0,2.59-1.11,3.88-3.33,3.88
		c-0.19,0-0.19,0-0.19,0c-2.21,0-3.33-1.29-3.33-3.88v-18.5H349.15z M345.82,51.61c0-2.59,1.11-3.88,3.33-3.88c0,0,0,0,0.19,0
		c2.22,0,3.33,1.29,3.33,3.88v18.13h-3.51h-3.33V51.61z"/>
	<polygon class="st1" points="417.78,30.15 320.85,30.15 320.85,115.06 299.39,115.06 299.39,30.15 260.36,30.34 260.36,16.28 
		417.78,16.28 	"/>
	<path class="st1" d="M294.92,76.58c-60.71,0,25.74,0-35.3,0V62.53h35.3V76.58z"/>
	<path class="st0" d="M64.09,29.6c8.14,0,14.8-6.66,14.8-14.8c0-8.14-6.66-14.8-14.8-14.8c-8.32,0-14.98,6.66-14.98,14.8
		C49.11,22.94,55.77,29.6,64.09,29.6z"/>
	<rect x="129.67" y="124.68" class="st1" width="364.7" height="5.92"/>
</g>
</svg>
